<svg xmlns="http://www.w3.org/2000/svg" width="12.996" height="13" viewBox="0 0 12.996 13">
  <path id="Path_1814" data-name="Path 1814" d="M1001.609,716.718a1.078,1.078,0,0,1-.34.789q-2.446,2.442-4.89,4.888-1.747,1.747-3.5,3.49a.85.85,0,0,1-.4.22c-1.116.231-2.235.449-3.354.667a.4.4,0,0,1-.5-.5q.333-1.71.68-3.418a.612.612,0,0,1,.158-.292q4.227-4.237,8.461-8.466a1,1,0,0,1,1.459,0c.645.639,1.285,1.283,1.926,1.925A.98.98,0,0,1,1001.609,716.718Zm-4.284-.891-7.039,7.039.812.81,7.035-7.035Zm-4.815,9.286,7.046-7.049-.808-.814L991.7,724.3Zm7.654-7.6c.2-.2.394-.395.586-.6a.227.227,0,0,0,0-.347c-.066-.072-.138-.139-.207-.208q-.836-.836-1.672-1.672c-.137-.137-.255-.159-.369-.051-.208.2-.405.405-.6.6Zm-8.487,7.961-1.749-1.754-.43,2.183Z" transform="translate(-988.614 -713.784)" fill="#ff3f7d"/>
</svg>
