<svg xmlns="http://www.w3.org/2000/svg" width="14.166" height="18.78" viewBox="0 0 14.166 18.78">
  <path id="Path_1795" data-name="Path 1795" d="M667.082,367.882l-3.47,3.142c-.423.383-.841.771-1.269,1.147a.849.849,0,0,1-1.283-.2.59.59,0,0,1-.054-.249q0-6.9,0-13.806a2.021,2.021,0,0,1,.9-1.668,2.99,2.99,0,0,1,1.794-.6c2.257-.014,4.514-.022,6.771,0a2.865,2.865,0,0,1,2.209.991,1.93,1.93,0,0,1,.487,1.3q0,6.749,0,13.5a.934.934,0,0,1-.324.778.748.748,0,0,1-1.03-.121q-1.262-1.12-2.516-2.248l-2.019-1.805C667.221,368,667.16,367.948,667.082,367.882Z" transform="translate(-660.006 -354.636)" fill="none" stroke="#f73d79" stroke-linecap="round" stroke-width="2"/>
</svg>
