<svg xmlns="http://www.w3.org/2000/svg" width="18.852" height="18.865" viewBox="0 0 18.852 18.865">
  <g id="Group_275" data-name="Group 275" transform="translate(-895.677 -903.389)">
    <path id="Path_1835" data-name="Path 1835" d="M912.722,922.254a10.667,10.667,0,0,1-1.016-.791c-1.179-1.16-2.337-2.341-3.5-3.507a8,8,0,0,1-10.078-12.376,8,8,0,0,1,12.09,10.339c1.273,1.268,2.556,2.537,3.829,3.816a1.406,1.406,0,0,1-.039,2.146,4,4,0,0,1-.657.372Zm-14.172-10.9a5.09,5.09,0,1,0,5.124-5.076A5.1,5.1,0,0,0,898.551,911.354Z" transform="translate(0 0)" fill="#1b003e"/>
  </g>
</svg>
