<svg xmlns="http://www.w3.org/2000/svg" width="27.895" height="18.607" viewBox="0 0 27.895 18.607">
  <g id="Group_1853" data-name="Group 1853" transform="translate(-44.474 -129.952)">
    <path id="Path_3252" data-name="Path 3252" d="M58.705,148.56h-.818c-.106-.015-.212-.04-.319-.045a14.133,14.133,0,0,1-3.869-.7,15.379,15.379,0,0,1-9.095-8.235c-.039-.079-.087-.153-.13-.23v-.163c.025-.038.053-.074.075-.113a20.562,20.562,0,0,1,4.274-5.261,14.487,14.487,0,0,1,8.354-3.8,13.209,13.209,0,0,1,7.122,1.267,18.617,18.617,0,0,1,8.021,7.828.348.348,0,0,1-.037.4A19.11,19.11,0,0,1,65.9,146.35a13.58,13.58,0,0,1-6.088,2.112C59.445,148.5,59.075,148.527,58.705,148.56Zm-.258-3.5a5.813,5.813,0,1,0-5.805-5.811A5.684,5.684,0,0,0,58.448,145.058Z" fill="#b4b4b4"/>
    <path id="Path_3253" data-name="Path 3253" d="M243.458,239.8a3.488,3.488,0,1,1-3.417-3.5A3.518,3.518,0,0,1,243.458,239.8Z" transform="translate(-181.521 -100.539)" fill="#b4b4b4"/>
  </g>
</svg>
