<svg xmlns="http://www.w3.org/2000/svg" width="14.347" height="14.352" viewBox="0 0 14.347 14.352">
  <path id="Path_1702" data-name="Path 1702" d="M1002.961,717.023a1.19,1.19,0,0,1-.376.871q-2.7,2.7-5.4,5.4-1.929,1.928-3.861,3.853a.939.939,0,0,1-.442.243c-1.232.255-2.467.5-3.7.736a.436.436,0,0,1-.554-.549q.368-1.888.75-3.773a.677.677,0,0,1,.175-.322q4.666-4.677,9.341-9.346a1.109,1.109,0,0,1,1.611,0c.712.705,1.418,1.416,2.127,2.125A1.083,1.083,0,0,1,1002.961,717.023Zm-4.729-.983-7.771,7.77.9.895,7.767-7.767Zm-5.316,10.252,7.779-7.782-.892-.9-7.784,7.784Zm8.449-8.394c.218-.221.435-.436.646-.657a.25.25,0,0,0,0-.383c-.073-.08-.152-.153-.229-.229q-.923-.923-1.845-1.846c-.152-.151-.281-.176-.408-.056-.229.218-.447.447-.663.665ZM992,726.686l-1.93-1.936-.474,2.41Z" transform="translate(-988.614 -713.784)" fill="#fff"/>
</svg>
