<svg xmlns="http://www.w3.org/2000/svg" xmlns:xlink="http://www.w3.org/1999/xlink" width="64" height="64" viewBox="0 0 64 64">
  <defs>
    <filter id="Path_244" x="12.6" y="16.101" width="38.214" height="38.334" filterUnits="userSpaceOnUse">
      <feOffset dy="3" input="SourceAlpha"/>
      <feGaussianBlur stdDeviation="3" result="blur"/>
      <feFlood flood-opacity="0.161"/>
      <feComposite operator="in" in2="blur"/>
      <feComposite in="SourceGraphic"/>
    </filter>
  </defs>
  <g id="Group_214" data-name="Group 214" transform="translate(-1089 -1510)">
    <g id="Ellipse_12" data-name="Ellipse 12" transform="translate(1089 1510)" fill="#5472c6" stroke="#31374a" stroke-width="3">
      <circle cx="32" cy="32" r="32" stroke="none"/>
      <circle cx="32" cy="32" r="30.5" fill="none"/>
    </g>
    <g transform="matrix(1, 0, 0, 1, 1089, 1510)" filter="url(#Path_244)">
      <path id="Path_244-2" data-name="Path 244" d="M-690.608,60.37a9.476,9.476,0,0,1-3.961-1.01,22.664,22.664,0,0,1-11.891-12.675,11.561,11.561,0,0,1-.5-2.756,2.061,2.061,0,0,1,.653-1.673c.591-.615,1.191-1.222,1.806-1.813a.984.984,0,0,1,1.575-.016q1.463,1.424,2.882,2.893c.533.552.511,1-.038,1.561-.531.547-1.079,1.077-1.624,1.61a1.116,1.116,0,0,0-.3,1.55,12.856,12.856,0,0,0,2.436,3.515,16.188,16.188,0,0,0,4.766,3.739,1.1,1.1,0,0,0,1.6-.248c.529-.523,1.049-1.056,1.581-1.576.623-.611,1.069-.612,1.677-.008q1.352,1.343,2.7,2.695c.662.668.664,1.139.01,1.817-.541.562-1.091,1.116-1.641,1.67A2.291,2.291,0,0,1-690.608,60.37Z" transform="translate(728.57 -17.94)" fill="#fff"/>
    </g>
  </g>
</svg>
