<svg xmlns="http://www.w3.org/2000/svg" width="30" height="30" viewBox="0 0 30 30">
  <g id="Group_213" data-name="Group 213" transform="translate(-154 -1738)">
    <circle id="Ellipse_8" data-name="Ellipse 8" cx="15" cy="15" r="15" transform="translate(154 1738)" fill="#5472c6"/>
    <path id="Path_239" data-name="Path 239" d="M71.041,49.58a8.509,8.509,0,0,0,6.108,3.106c-.011-.307-.04-.6-.029-.888a2.964,2.964,0,0,1,2.146-2.655,2.934,2.934,0,0,1,2.905.743.19.19,0,0,0,.2.056,6.042,6.042,0,0,0,1.623-.613c.04-.022.082-.042.15-.076a3.1,3.1,0,0,1-1.225,1.609,5.338,5.338,0,0,0,1.586-.419l.031.035c-.236.277-.46.564-.711.826a8.006,8.006,0,0,1-.659.58.228.228,0,0,0-.1.2,8.583,8.583,0,0,1-1.6,5.232,7.928,7.928,0,0,1-5.249,3.364A8.572,8.572,0,0,1,71.66,60.3a8.332,8.332,0,0,1-1.535-.754c-.014-.009-.027-.021-.063-.051a6.051,6.051,0,0,0,4.362-1.229,3.045,3.045,0,0,1-2.774-2.071,3.244,3.244,0,0,0,1.33-.062,2.993,2.993,0,0,1-1.709-1.056,2.924,2.924,0,0,1-.653-1.9,3.05,3.05,0,0,0,1.332.362,2.987,2.987,0,0,1-1.233-1.811A2.95,2.95,0,0,1,71.041,49.58Z" transform="translate(92.165 1698.986)" fill="#fff"/>
  </g>
</svg>
