<svg xmlns="http://www.w3.org/2000/svg" width="30" height="30" viewBox="0 0 30 30">
  <g id="Group_210" data-name="Group 210" transform="translate(-289 -1738)">
    <circle id="Ellipse_11" data-name="Ellipse 11" cx="15" cy="15" r="15" transform="translate(289 1738)" fill="#5472c6"/>
    <path id="Path_240" data-name="Path 240" d="M702.09,301.264h-2.962v-7.109h-1.4v-2.514h1.4c0-.08,0-.142,0-.2.006-.588-.02-1.178.024-1.762a2.684,2.684,0,0,1,1.3-2.252,2.568,2.568,0,0,1,1.271-.372c.853-.017,1.707,0,2.573,0v2.429h-.165c-.463,0-.925,0-1.388,0a.577.577,0,0,0-.646.586c-.018.516,0,1.032,0,1.569h2.253l-.258,2.517H702.09Z" transform="translate(-396.727 1458.957)" fill="#fff"/>
  </g>
</svg>
