<svg xmlns="http://www.w3.org/2000/svg" width="30" height="30" viewBox="0 0 30 30">
  <g id="Group_212" data-name="Group 212" transform="translate(-199 -1738)">
    <circle id="Ellipse_9" data-name="Ellipse 9" cx="15" cy="15" r="15" transform="translate(199 1738)" fill="#5472c6"/>
    <g id="Group_85" data-name="Group 85" transform="translate(207 1746.592)">
      <path id="Path_241" data-name="Path 241" d="M428.43,139.533a29.9,29.9,0,0,1,.021-3.234,3.785,3.785,0,0,1,3.775-3.321q2.75-.031,5.5,0a3.878,3.878,0,0,1,3.85,3.908c.024,1.8.02,3.611,0,5.416a3.893,3.893,0,0,1-3.889,3.871q-2.708.022-5.416,0a3.893,3.893,0,0,1-3.893-3.911c-.009-.91,0-1.82,0-2.729Zm6.511,5.456v0c.938,0,1.877.016,2.815,0a2.653,2.653,0,0,0,2.623-2.525q.069-2.856,0-5.714a2.632,2.632,0,0,0-2.612-2.577q-2.793-.034-5.587,0a2.669,2.669,0,0,0-2.611,2.67q-.012,2.687,0,5.374a2.693,2.693,0,0,0,2.771,2.775C433.206,144.995,434.073,144.989,434.941,144.989Z" transform="translate(-428.376 -132.962)" fill="#fff"/>
      <path id="Path_242" data-name="Path 242" d="M467.316,168.374a3.591,3.591,0,1,1-3.653,3.5A3.6,3.6,0,0,1,467.316,168.374Zm-2.479,3.576a2.417,2.417,0,1,0,2.385-2.4A2.44,2.44,0,0,0,464.836,171.949Z" transform="translate(-460.65 -165.35)" fill="#fff"/>
      <path id="Path_243" data-name="Path 243" d="M542.22,163.264c-.024.362-.185.567-.526.569a.521.521,0,0,1-.031-1.041A.5.5,0,0,1,542.22,163.264Z" transform="translate(-531.541 -160.244)" fill="#fff"/>
    </g>
  </g>
</svg>
