<svg xmlns="http://www.w3.org/2000/svg" width="43" height="43" viewBox="0 0 43 43">
  <g id="Group_209" data-name="Group 209" transform="translate(-174 -362.999)">
    <g id="Group_199" data-name="Group 199" transform="translate(-107.161 99.838)">
      <circle id="Ellipse_26" data-name="Ellipse 26" cx="21.5" cy="21.5" r="21.5" transform="translate(281.161 263.161)" fill="#ededed"/>
      <path id="Path_1625" data-name="Path 1625" d="M1933.343-1947.012l-1.816-.91q-2.063-1.032-4.125-2.065a.217.217,0,0,0-.313.051,3.158,3.158,0,0,1-3.4.99,3.184,3.184,0,0,1-2.32-2.516,3.315,3.315,0,0,1,2.742-3.931,3.241,3.241,0,0,1,2.978,1.09c.082.09.142.139.275.072q2.938-1.478,5.883-2.946c.03-.015.058-.035.1-.06a3.371,3.371,0,0,1,.008-1.716,3.351,3.351,0,0,1,2.907-2.44,3.35,3.35,0,0,1,3.232,1.785,3.315,3.315,0,0,1-3.112,4.831,3.15,3.15,0,0,1-2.27-1.091.261.261,0,0,0-.378-.073q-2.863,1.444-5.735,2.872c-.055.028-.109.058-.18.1a3.293,3.293,0,0,1,0,1.708c.138.071.27.14.4.207q2.767,1.383,5.531,2.77a.238.238,0,0,0,.344-.065,3.144,3.144,0,0,1,3.424-.956,3.158,3.158,0,0,1,2.307,2.711,3.293,3.293,0,0,1-2.82,3.725,3.31,3.31,0,0,1-3.7-3.946C1933.322-1946.88,1933.331-1946.94,1933.343-1947.012Zm3.192-9.088a1.979,1.979,0,0,0,2.006-1.988,1.981,1.981,0,0,0-1.983-1.991,1.981,1.981,0,0,0-2,1.978A1.981,1.981,0,0,0,1936.535-1956.1Zm-13.909,3.972a1.98,1.98,0,0,0,1.976,2,1.981,1.981,0,0,0,2-1.971,1.981,1.981,0,0,0-1.966-2.007A1.979,1.979,0,0,0,1922.626-1952.128Zm15.916,5.985a1.981,1.981,0,0,0-1.976-2,1.981,1.981,0,0,0-2,1.971,1.982,1.982,0,0,0,1.986,2.008A1.981,1.981,0,0,0,1938.541-1946.143Z" transform="translate(-1629.679 2237.209)" fill="#ededed"/>
    </g>
    <path id="Path_1770" data-name="Path 1770" d="M2805.385,1289.786a8.342,8.342,0,0,1,4.2-2.348c3.761-.659,6.378,1.858,5.887,5.735a8.257,8.257,0,0,1-1.692,3.906,36.542,36.542,0,0,1-8.383,7.9,33.142,33.142,0,0,1-9.02-8.895,6.454,6.454,0,0,1-1.071-4.709c.484-3.124,2.971-4.381,5.741-3.966A8.2,8.2,0,0,1,2805.385,1289.786Z" transform="translate(-2610.119 -910.979)" fill="none" stroke="#707070" stroke-width="1"/>
  </g>
</svg>
