<svg xmlns="http://www.w3.org/2000/svg" width="7.966" height="11.876" viewBox="0 0 7.966 11.876">
  <path id="Path_1780" data-name="Path 1780" d="M2356.761-584.21a7.723,7.723,0,0,1-.923,3.208,28.8,28.8,0,0,1-2.861,4.6c-.112.15-.194.3-.372.054a25.463,25.463,0,0,1-3.417-5.886,4.392,4.392,0,0,1,.01-3.642,3.991,3.991,0,0,1,4.258-2.169,3.969,3.969,0,0,1,3.234,3.241C2356.726-584.576,2356.745-584.349,2356.761-584.21Zm-3.992-1.66a1.756,1.756,0,0,0-1.741,1.741,1.764,1.764,0,0,0,1.748,1.737,1.768,1.768,0,0,0,1.743-1.745A1.759,1.759,0,0,0,2352.769-585.869Z" transform="translate(-2348.796 588.09)" fill="#888"/>
</svg>
