<svg xmlns="http://www.w3.org/2000/svg" width="118" height="28.247" viewBox="0 0 118 28.247">
  <g id="Group_209" data-name="Group 209" transform="translate(-50 -12.001)">
    <text id="PilotSpider" transform="translate(89 32)" fill="#fff" font-size="15" font-family="HelveticaNeue-Bold, Helvetica Neue" font-weight="700"><tspan x="0" y="0">PilotSpider</tspan></text>
    <path id="Path_231" data-name="Path 231" d="M1475.3-1964.892a14.12,14.12,0,0,0-14.12,14.124,14.122,14.122,0,0,0,14.12,14.123,14.128,14.128,0,0,0,14.126-14.123A14.126,14.126,0,0,0,1475.3-1964.892Zm0,15.436c-4.875,0-8.824,3.124-8.824-1.749a8.826,8.826,0,0,1,8.824-8.832,8.832,8.832,0,0,1,8.829,8.832C1484.124-1946.332,1480.171-1949.456,1475.3-1949.456Z" transform="translate(-1411.175 1976.893)" fill="#5472c6"/>
  </g>
</svg>
