<svg xmlns="http://www.w3.org/2000/svg" width="10.489" height="10.5" viewBox="0 0 10.489 10.5">
  <path id="Path_1698" data-name="Path 1698" d="M2979.772,309.438c.767.756,1.544,1.518,2.317,2.286.321.319.624.656.952.968a.362.362,0,0,1,.031.571c-.03.035-.055.075-.085.11-.389.462-.546.484-.977.062-.961-.942-1.911-1.9-2.86-2.851a1.733,1.733,0,0,1-.2-.3,3.989,3.989,0,0,1-5.554-.925,3.9,3.9,0,1,1,6.376.08Zm-.594-2.3a2.584,2.584,0,1,0-2.648,2.583A2.556,2.556,0,0,0,2979.178,307.134Z" transform="translate(-2972.709 -303.236)" fill="#626262"/>
</svg>
