<svg xmlns="http://www.w3.org/2000/svg" width="11.498" height="7.955" viewBox="0 0 11.498 7.955">
  <g id="Group_194" data-name="Group 194" transform="translate(0)">
    <path id="Path_1768" data-name="Path 1768" d="M2324.91,1263.892a5.765,5.765,0,0,1,3.546,1.326,7.678,7.678,0,0,1,2.058,2.483.212.212,0,0,1,.013.167,7.013,7.013,0,0,1-2.917,3.2,5.591,5.591,0,0,1-6.107-.264,7.1,7.1,0,0,1-2.444-2.795.185.185,0,0,1-.007-.145,7.2,7.2,0,0,1,3.542-3.5A5.641,5.641,0,0,1,2324.91,1263.892Zm-.165,6.62a2.637,2.637,0,1,0-2.59-2.665A2.64,2.64,0,0,0,2324.745,1270.511Z" transform="translate(-2319.041 -1263.892)" fill="#888"/>
    <path id="Path_1769" data-name="Path 1769" d="M2436.552,1333.161a1.582,1.582,0,1,1,1.6,1.571A1.581,1.581,0,0,1,2436.552,1333.161Z" transform="translate(-2432.382 -1329.167)" fill="#888"/>
  </g>
</svg>
