<svg xmlns="http://www.w3.org/2000/svg" width="43" height="43" viewBox="0 0 43 43">
  <g id="Group_210" data-name="Group 210" transform="translate(-174 -437.999)">
    <g id="Group_200" data-name="Group 200" transform="translate(-107.161 174.838)">
      <circle id="Ellipse_26" data-name="Ellipse 26" cx="21.5" cy="21.5" r="21.5" transform="translate(281.161 263.161)" fill="#ededed"/>
      <path id="Path_1625" data-name="Path 1625" d="M1933.343-1947.012l-1.816-.91q-2.063-1.032-4.125-2.065a.217.217,0,0,0-.313.051,3.158,3.158,0,0,1-3.4.99,3.184,3.184,0,0,1-2.32-2.516,3.315,3.315,0,0,1,2.742-3.931,3.241,3.241,0,0,1,2.978,1.09c.082.09.142.139.275.072q2.938-1.478,5.883-2.946c.03-.015.058-.035.1-.06a3.371,3.371,0,0,1,.008-1.716,3.351,3.351,0,0,1,2.907-2.44,3.35,3.35,0,0,1,3.232,1.785,3.315,3.315,0,0,1-3.112,4.831,3.15,3.15,0,0,1-2.27-1.091.261.261,0,0,0-.378-.073q-2.863,1.444-5.735,2.872c-.055.028-.109.058-.18.1a3.293,3.293,0,0,1,0,1.708c.138.071.27.14.4.207q2.767,1.383,5.531,2.77a.238.238,0,0,0,.344-.065,3.144,3.144,0,0,1,3.424-.956,3.158,3.158,0,0,1,2.307,2.711,3.293,3.293,0,0,1-2.82,3.725,3.31,3.31,0,0,1-3.7-3.946C1933.322-1946.88,1933.331-1946.94,1933.343-1947.012Zm3.192-9.088a1.979,1.979,0,0,0,2.006-1.988,1.981,1.981,0,0,0-1.983-1.991,1.981,1.981,0,0,0-2,1.978A1.981,1.981,0,0,0,1936.535-1956.1Zm-13.909,3.972a1.98,1.98,0,0,0,1.976,2,1.981,1.981,0,0,0,2-1.971,1.981,1.981,0,0,0-1.966-2.007A1.979,1.979,0,0,0,1922.626-1952.128Zm15.916,5.985a1.981,1.981,0,0,0-1.976-2,1.981,1.981,0,0,0-2,1.971,1.982,1.982,0,0,0,1.986,2.008A1.981,1.981,0,0,0,1938.541-1946.143Z" transform="translate(-1629.679 2237.209)" fill="#ededed"/>
    </g>
    <g id="Group_194" data-name="Group 194" transform="translate(185.104 451.928)">
      <path id="Path_1768" data-name="Path 1768" d="M2329.746,1263.892a10.515,10.515,0,0,1,6.468,2.419,14,14,0,0,1,3.753,4.528.386.386,0,0,1,.025.3,12.794,12.794,0,0,1-5.32,5.832,10.2,10.2,0,0,1-11.139-.481,12.957,12.957,0,0,1-4.458-5.1.337.337,0,0,1-.012-.264,13.133,13.133,0,0,1,6.461-6.392A10.291,10.291,0,0,1,2329.746,1263.892Zm-.3,12.074a4.81,4.81,0,1,0-4.725-4.86A4.816,4.816,0,0,0,2329.445,1275.966Z" transform="translate(-2319.041 -1263.892)" fill="#888"/>
      <path id="Path_1769" data-name="Path 1769" d="M2436.552,1334.473a2.885,2.885,0,1,1,2.916,2.866A2.883,2.883,0,0,1,2436.552,1334.473Z" transform="translate(-2428.947 -1327.189)" fill="#888"/>
    </g>
  </g>
</svg>
