<svg xmlns="http://www.w3.org/2000/svg" width="30" height="30" viewBox="0 0 30 30">
  <g id="Group_294" data-name="Group 294" transform="translate(-244 -1738)">
    <circle id="Ellipse_10" data-name="Ellipse 10" cx="15" cy="15" r="15" transform="translate(244 1738)" fill="#ff3f7d"/>
    <g id="Group_84" data-name="Group 84" transform="translate(253 1746.592)">
      <path id="Path_236" data-name="Path 236" d="M352.715,485.144c-.059,0-.118-.014-.177-.014H349.96v-.184c0-1.386.006-2.772,0-4.158a4.408,4.408,0,0,0-.106-.932,1.186,1.186,0,0,0-1.005-1.012,1.447,1.447,0,0,0-1.458.555,1.616,1.616,0,0,0-.332,1.046c.005,1.5,0,2.992,0,4.487v.187H344.3v-8.276h2.755v1.1l.031.007c.086-.113.168-.228.258-.337a2.588,2.588,0,0,1,1.815-.953,3.169,3.169,0,0,1,2.269.552,3.018,3.018,0,0,1,1.132,1.828c.066.285.089.58.132.87.007.049.017.1.025.146Z" transform="translate(-339.853 -472.836)" fill="#fff"/>
      <path id="Path_237" data-name="Path 237" d="M260.476,488.97h-2.731v-8.277h2.731Z" transform="translate(-257.57 -476.687)" fill="#fff"/>
      <path id="Path_238" data-name="Path 238" d="M255.719,402.365a1.474,1.474,0,0,1-1.507-1.17,1.406,1.406,0,0,1,1.287-1.7,1.633,1.633,0,0,1,1.291.338,1.378,1.378,0,0,1,.466,1.36,1.3,1.3,0,0,1-.914,1.049A4.657,4.657,0,0,1,255.719,402.365Z" transform="translate(-254.187 -399.476)" fill="#fff"/>
    </g>
  </g>
</svg>
