<svg xmlns="http://www.w3.org/2000/svg" width="219.146" height="28.617" viewBox="0 0 219.146 28.617">
  <g id="Group_185" data-name="Group 185" transform="translate(-197.565 -1115.747)">
    <path id="Path_1731" data-name="Path 1731" d="M306.028,1135.744a6.9,6.9,0,0,1-5.607,2.559c-4.5,0-7.769-3.519-7.769-8.367s3.08-8.248,7.49-8.248c2.143,0,3.859.764,5.921,2.636l.312.283,4.155-4.2-.317-.309c-3.211-3.13-6.113-4.349-10.35-4.349-7.9,0-13.631,6.017-13.631,14.308a15.1,15.1,0,0,0,3.7,10.057,12.619,12.619,0,0,0,9.853,4.132,13.657,13.657,0,0,0,10.184-4.144l.313-.292-3.923-4.442Z" transform="translate(-56.543)" fill="#1b003e"/>
    <path id="Path_1732" data-name="Path 1732" d="M368.526,1140.158a7.311,7.311,0,0,0-5.578-2.3c-5.635,0-9.726,4.426-9.726,10.523,0,5.843,3.922,10.084,9.327,10.084a7.887,7.887,0,0,0,5.977-2.453v1.816h5.941v-19.332h-5.941Zm.08,7.981c0,2.966-2.091,5.378-4.661,5.378-2.521,0-4.422-2.243-4.422-5.219,0-3.12,1.835-5.3,4.462-5.3C366.706,1143,368.606,1145.114,368.606,1148.14Z" transform="translate(-99.263 -14.099)" fill="#1b003e"/>
    <path id="Path_1733" data-name="Path 1733" d="M580.211,1139.225a5.067,5.067,0,0,0-4.183,1.891v-1.891l-6.084,0,.143,19.475h5.941v-9.327c-.159-3.523,1.914-5.6,5.22-4.965v-5.08A6.642,6.642,0,0,0,580.211,1139.225Z" transform="translate(-237.465 -14.969)" fill="#1b003e"/>
    <path id="Path_1734" data-name="Path 1734" d="M426.491,1139.225a5.067,5.067,0,0,0-4.183,1.891v-1.891l-6.085,0,.143,19.475h5.941v-9.327c-.158-3.523,1.914-5.6,5.22-4.965v-5.08A6.643,6.643,0,0,0,426.491,1139.225Z" transform="translate(-139.438 -14.969)" fill="#1b003e"/>
    <path id="Path_1735" data-name="Path 1735" d="M608.972,1118.958c-1.307,1.267-1.943,3.144-1.943,5.739v.6H605v5.144h2.033v14.187h5.941v-14.187H615.4v-5.144h-2.431v-.6c0-1.317.515-1.82,2.041-1.994l.39-.045v-5.482l-.426-.014C612.276,1117.076,610.308,1117.664,608.972,1118.958Z" transform="translate(-259.818 -0.897)" fill="#1b003e"/>
    <path id="Path_1736" data-name="Path 1736" d="M647.315,1137.856c-6.2,0-10.523,4.245-10.523,10.324a10.024,10.024,0,0,0,10.443,10.283,10.305,10.305,0,1,0,.079-20.607Zm4.462,10.4c0,2.838-1.851,4.821-4.5,4.821-2.693,0-4.5-1.969-4.5-4.9,0-2.977,1.783-4.9,4.542-4.9C650.109,1143.279,651.777,1145.141,651.777,1148.259Z" transform="translate(-280.094 -14.099)" fill="#1b003e"/>
    <rect id="Rectangle_633" data-name="Rectangle 633" width="5.941" height="27.462" transform="translate(379.572 1116.265)" fill="#1b003e"/>
    <path id="Path_1737" data-name="Path 1737" d="M726.4,1117.287a3.25,3.25,0,1,0,0,6.5,3.25,3.25,0,0,0,0-6.5Z" transform="translate(-335.15 -0.982)" fill="#1b003e"/>
    <rect id="Rectangle_634" data-name="Rectangle 634" width="5.941" height="19.332" transform="translate(388.256 1124.395)" fill="#1b003e"/>
    <path id="Path_1738" data-name="Path 1738" d="M755.09,1137.856c-6.2,0-10.523,4.245-10.523,10.324a10.024,10.024,0,0,0,10.443,10.283,10.305,10.305,0,1,0,.08-20.607Zm4.462,10.4c0,2.838-1.851,4.821-4.5,4.821-2.692,0-4.5-1.969-4.5-4.9,0-2.977,1.782-4.9,4.542-4.9C757.884,1143.279,759.552,1145.141,759.552,1148.259Z" transform="translate(-348.822 -14.099)" fill="#1b003e"/>
    <path id="Path_1739" data-name="Path 1739" d="M236.61,1131.318a13.871,13.871,0,0,0,13.591-13.591H236.61Z" transform="translate(-24.899 -1.263)" fill="#1b003e"/>
    <path id="Path_1740" data-name="Path 1740" d="M197.565,1156.772a13.871,13.871,0,0,0,13.591,13.591v-13.591Z" transform="translate(0 -26.162)" fill="#ff3f7d"/>
    <path id="Path_1741" data-name="Path 1741" d="M250.2,1170.363a13.871,13.871,0,0,0-13.591-13.591v13.591Z" transform="translate(-24.899 -26.162)" fill="#02a6d2"/>
    <path id="Path_1742" data-name="Path 1742" d="M211.156,1117.727a13.871,13.871,0,0,0-13.591,13.591h13.591Z" transform="translate(0 -1.263)" fill="#ffbc00"/>
    <path id="Path_1743" data-name="Path 1743" d="M529.4,1148.553c.442-13.656-20.928-14.056-20.607-.239-.431,11.864,17.544,14.222,20.386,2.779h-5.986c-1.682,3.279-7.412,2.689-8.153-1.1h14.3Zm-14.352-2.353c.842-4.1,7.273-3.922,8.139,0Z" transform="translate(-198.463 -14.273)" fill="#1b003e"/>
    <path id="Path_1744" data-name="Path 1744" d="M469.607,1148.553c.442-13.656-20.928-14.056-20.607-.239-.431,11.864,17.544,14.222,20.386,2.779H463.4c-1.681,3.279-7.412,2.689-8.153-1.1h14.3Zm-14.352-2.353c.843-4.1,7.274-3.922,8.139,0Z" transform="translate(-160.334 -14.273)" fill="#1b003e"/>
  </g>
</svg>
