<svg xmlns="http://www.w3.org/2000/svg" width="21.226" height="18.423" viewBox="0 0 21.226 18.423">
  <path id="Path_1809" data-name="Path 1809" d="M565.948,273.152c.213-.243.444-.469.647-.722a6.022,6.022,0,0,0,1.237-2.475.137.137,0,0,0-.082-.179,9.251,9.251,0,0,1-3.081-2.75,6.886,6.886,0,0,1-1.265-3.457,6.683,6.683,0,0,1,1-4.08,9.3,9.3,0,0,1,3.923-3.468,12.215,12.215,0,0,1,4.151-1.2,13.073,13.073,0,0,1,6.1.731,10.184,10.184,0,0,1,4.169,2.8,7.211,7.211,0,0,1,1.723,3.39,6.6,6.6,0,0,1-.651,4.45,8.72,8.72,0,0,1-3.237,3.378,11.926,11.926,0,0,1-4.688,1.664,13.319,13.319,0,0,1-5.134-.261.184.184,0,0,0-.149.017,29.9,29.9,0,0,1-2.975,1.454c-.518.229-1.04.448-1.56.67a.272.272,0,0,1-.126.04Z" transform="translate(-563.383 -254.736)" fill="#1b003e"/>
</svg>
