<svg xmlns="http://www.w3.org/2000/svg" width="16.151" height="16.162" viewBox="0 0 16.151 16.162">
  <g id="Group_1453" data-name="Group 1453" transform="translate(-895.677 -903.389)">
    <path id="Path_1832" data-name="Path 1832" d="M910.28,919.551a9.139,9.139,0,0,1-.871-.677c-1.01-.993-2-2.006-2.995-3a6.858,6.858,0,0,1-8.634-10.6,6.851,6.851,0,0,1,10.357,8.858c1.091,1.086,2.19,2.174,3.28,3.27a1.2,1.2,0,0,1-.034,1.839,3.425,3.425,0,0,1-.563.319Zm-12.141-9.338a4.361,4.361,0,1,0,4.39-4.349A4.368,4.368,0,0,0,898.139,910.213Z" fill="#535977"/>
  </g>
</svg>
