<svg xmlns="http://www.w3.org/2000/svg" width="15.667" height="15.678" viewBox="0 0 15.667 15.678">
  <g id="Group_1452" data-name="Group 1452" transform="translate(-895.677 -903.389)">
    <path id="Path_1832" data-name="Path 1832" d="M909.842,919.067a8.884,8.884,0,0,1-.845-.657c-.98-.964-1.942-1.946-2.905-2.915a6.652,6.652,0,0,1-8.375-10.285,6.646,6.646,0,0,1,10.047,8.592c1.058,1.054,2.124,2.109,3.182,3.172a1.168,1.168,0,0,1-.033,1.784,3.327,3.327,0,0,1-.546.309Zm-11.777-9.058a4.23,4.23,0,1,0,4.259-4.219A4.237,4.237,0,0,0,898.065,910.009Z" fill="#1b003e"/>
  </g>
</svg>
